<svg xmlns="http://www.w3.org/2000/svg" xmlns:xlink="http://www.w3.org/1999/xlink" width="500" zoomAndPan="magnify" viewBox="0 0 375 374.999991" height="500" preserveAspectRatio="xMidYMid meet" version="1.0"><defs><g/><clipPath id="52354d568e"><path d="M 58.730469 207 L 374.914062 207 L 374.914062 322.59375 L 58.730469 322.59375 Z M 58.730469 207 " clip-rule="nonzero"/></clipPath><clipPath id="55cf1b4a0b"><path d="M 101 54.671875 L 333 54.671875 L 333 254 L 101 254 Z M 101 54.671875 " clip-rule="nonzero"/></clipPath></defs><g clip-path="url(#52354d568e)"><path fill="#8b5cf6" d="M 104.898438 219.609375 L 106.175781 242.847656 C 106.257812 244.429688 106.851562 245.917969 107.851562 247.136719 C 114.847656 255.609375 146.21875 285.164062 216.90625 285.164062 C 287.597656 285.164062 318.585938 255.988281 325.839844 247.296875 C 326.933594 245.984375 327.566406 244.355469 327.667969 242.640625 L 328.929688 219.628906 C 337.347656 215.007812 346.035156 209.792969 346.035156 209.792969 C 359.695312 202.390625 374.9375 213.023438 374.964844 228.613281 C 375.011719 253.839844 355.300781 279.765625 328.714844 296.101562 C 298.734375 314.523438 253.984375 322.164062 216.925781 322.164062 C 179.867188 322.164062 135.117188 314.523438 105.136719 296.101562 C 78.550781 279.765625 58.839844 253.847656 58.886719 228.613281 C 58.914062 213.023438 74.160156 202.390625 87.816406 209.792969 C 87.816406 209.792969 96.492188 214.996094 104.898438 219.609375 Z M 104.898438 219.609375 " fill-opacity="1" fill-rule="nonzero"/></g><g clip-path="url(#55cf1b4a0b)"><path fill="#8b5cf6" d="M 216.917969 54.71875 C 274.714844 54.71875 290.386719 56.070312 313.886719 58.769531 L 313.878906 58.769531 C 324.710938 60.015625 333.394531 68.078125 332.585938 78.996094 L 323.929688 196.921875 C 321.222656 197.707031 318.269531 198.699219 314.957031 199.808594 C 297.589844 205.636719 270.371094 214.773438 216.917969 214.773438 C 163.460938 214.773438 136.242188 205.636719 118.878906 199.808594 C 115.5625 198.695312 112.605469 197.703125 109.894531 196.917969 L 101.238281 78.996094 C 100.441406 68.078125 109.09375 59.820312 119.945312 58.769531 C 143.160156 56.515625 167.328125 54.71875 216.917969 54.71875 Z M 114.042969 253.425781 L 114.070312 253.839844 L 114.667969 253.976562 C 114.457031 253.789062 114.246094 253.605469 114.042969 253.425781 Z M 319.214844 253.964844 L 319.753906 253.839844 L 319.78125 253.460938 C 319.597656 253.628906 319.40625 253.792969 319.214844 253.964844 Z M 319.214844 253.964844 " fill-opacity="1" fill-rule="nonzero"/></g><g fill="#8b5cf6" fill-opacity="1"><g transform="translate(19.387193, 317.202849)"><g><path d="M 40.828125 -11.203125 C 40.828125 -9.179688 40.359375 -7.351562 39.421875 -5.71875 C 38.492188 -4.082031 37.289062 -2.71875 35.8125 -1.625 C 34.332031 -0.539062 32.695312 0.304688 30.90625 0.921875 C 29.125 1.546875 27.296875 1.859375 25.421875 1.859375 C 23.085938 1.859375 20.5625 1.429688 17.84375 0.578125 C 15.125 -0.273438 12.632812 -1.476562 10.375 -3.03125 C 8.125 -4.582031 6.21875 -6.410156 4.65625 -8.515625 C 3.101562 -10.617188 2.328125 -12.988281 2.328125 -15.625 C 2.328125 -19.820312 4.113281 -22.972656 7.6875 -25.078125 C 11.269531 -27.179688 14.925781 -28.234375 18.65625 -28.234375 C 20.988281 -28.234375 23.4375 -27.84375 26 -27.0625 C 28.570312 -26.28125 30.984375 -25.148438 33.234375 -23.671875 C 35.492188 -22.203125 37.320312 -20.414062 38.71875 -18.3125 C 40.125 -16.207031 40.828125 -13.835938 40.828125 -11.203125 Z M 40.828125 -11.203125 "/></g></g></g></svg>