<svg xmlns="http://www.w3.org/2000/svg" xmlns:xlink="http://www.w3.org/1999/xlink" width="395" zoomAndPan="magnify" viewBox="0 0 296.25 104.999996" height="140" preserveAspectRatio="xMidYMid meet" version="1.0"><defs><g/><clipPath id="56eb17fedb"><path d="M 0 50 L 103.773438 50 L 103.773438 88 L 0 88 Z M 0 50 " clip-rule="nonzero"/></clipPath><clipPath id="641476c097"><path d="M 13 0.132812 L 90 0.132812 L 90 66 L 13 66 Z M 13 0.132812 " clip-rule="nonzero"/></clipPath></defs><g clip-path="url(#56eb17fedb)"><path fill="#ffffff" d="M 15.160156 54.289062 L 15.578125 61.917969 C 15.605469 62.4375 15.800781 62.925781 16.128906 63.324219 C 18.425781 66.105469 28.726562 75.8125 51.9375 75.8125 C 75.144531 75.8125 85.320312 66.234375 87.703125 63.378906 C 88.0625 62.945312 88.269531 62.414062 88.300781 61.851562 L 88.71875 54.292969 C 91.480469 52.777344 94.332031 51.0625 94.332031 51.0625 C 98.816406 48.632812 103.824219 52.125 103.832031 57.242188 C 103.847656 65.527344 97.375 74.039062 88.644531 79.402344 C 78.804688 85.449219 64.109375 87.960938 51.941406 87.960938 C 39.773438 87.960938 25.082031 85.449219 15.238281 79.402344 C 6.507812 74.039062 0.0351562 65.53125 0.0507812 57.242188 C 0.0625 52.125 5.066406 48.632812 9.550781 51.0625 C 9.550781 51.0625 12.398438 52.773438 15.160156 54.289062 Z M 15.160156 54.289062 " fill-opacity="1" fill-rule="nonzero"/></g><g clip-path="url(#641476c097)"><path fill="#ffffff" d="M 51.9375 0.148438 C 70.917969 0.148438 76.0625 0.589844 83.777344 1.476562 L 83.773438 1.476562 C 87.332031 1.886719 90.183594 4.535156 89.917969 8.117188 L 87.074219 46.839844 C 86.1875 47.097656 85.214844 47.421875 84.128906 47.785156 C 78.425781 49.699219 69.492188 52.699219 51.9375 52.699219 C 34.386719 52.699219 25.449219 49.699219 19.75 47.785156 C 18.660156 47.421875 17.6875 47.09375 16.800781 46.835938 L 13.957031 8.117188 C 13.695312 4.535156 16.539062 1.824219 20.101562 1.476562 C 27.722656 0.738281 35.65625 0.148438 51.9375 0.148438 Z M 18.160156 65.390625 L 18.171875 65.527344 L 18.367188 65.570312 C 18.296875 65.511719 18.226562 65.449219 18.160156 65.390625 Z M 85.527344 65.566406 L 85.703125 65.527344 L 85.714844 65.402344 C 85.652344 65.457031 85.589844 65.511719 85.527344 65.566406 Z M 85.527344 65.566406 " fill-opacity="1" fill-rule="nonzero"/></g><g fill="#ffffff" fill-opacity="1"><g transform="translate(104.546844, 79.742834)"><g><path d="M 12.796875 -3.515625 C 12.796875 -2.878906 12.648438 -2.304688 12.359375 -1.796875 C 12.066406 -1.285156 11.6875 -0.859375 11.21875 -0.515625 C 10.757812 -0.171875 10.25 0.09375 9.6875 0.28125 C 9.125 0.476562 8.550781 0.578125 7.96875 0.578125 C 7.238281 0.578125 6.445312 0.441406 5.59375 0.171875 C 4.738281 -0.0859375 3.957031 -0.460938 3.25 -0.953125 C 2.539062 -1.441406 1.941406 -2.015625 1.453125 -2.671875 C 0.972656 -3.328125 0.734375 -4.066406 0.734375 -4.890625 C 0.734375 -6.210938 1.289062 -7.203125 2.40625 -7.859375 C 3.53125 -8.515625 4.675781 -8.84375 5.84375 -8.84375 C 6.570312 -8.84375 7.335938 -8.71875 8.140625 -8.46875 C 8.953125 -8.226562 9.710938 -7.875 10.421875 -7.40625 C 11.128906 -6.945312 11.703125 -6.390625 12.140625 -5.734375 C 12.578125 -5.078125 12.796875 -4.335938 12.796875 -3.515625 Z M 12.796875 -3.515625 "/></g></g></g><g fill="#ffffff" fill-opacity="1"><g transform="translate(118.069802, 79.742834)"><g><path d="M 33.703125 -48.109375 C 33.703125 -44.546875 33.566406 -41.007812 33.296875 -37.5 C 33.023438 -33.988281 32.890625 -30.457031 32.890625 -26.90625 C 32.890625 -24.03125 32.972656 -21.175781 33.140625 -18.34375 C 33.316406 -15.519531 33.40625 -12.671875 33.40625 -9.796875 C 33.40625 -9.015625 33.378906 -8.078125 33.328125 -6.984375 C 33.285156 -5.890625 33.128906 -4.828125 32.859375 -3.796875 C 32.585938 -2.773438 32.144531 -1.898438 31.53125 -1.171875 C 30.925781 -0.441406 30.066406 -0.078125 28.953125 -0.078125 C 27.484375 -0.078125 26.273438 -0.625 25.328125 -1.71875 C 24.378906 -2.8125 23.785156 -4.039062 23.546875 -5.40625 C 22.617188 -3.65625 21.273438 -2.171875 19.515625 -0.953125 C 17.765625 0.265625 15.863281 0.875 13.8125 0.875 C 11.625 0.875 9.738281 0.117188 8.15625 -1.390625 C 6.570312 -2.898438 5.253906 -4.726562 4.203125 -6.875 C 3.148438 -9.019531 2.367188 -11.257812 1.859375 -13.59375 C 1.347656 -15.9375 1.09375 -17.960938 1.09375 -19.671875 C 1.09375 -20.890625 1.164062 -22.273438 1.3125 -23.828125 C 1.457031 -25.390625 1.710938 -26.972656 2.078125 -28.578125 C 2.441406 -30.191406 2.914062 -31.765625 3.5 -33.296875 C 4.09375 -34.835938 4.835938 -36.210938 5.734375 -37.421875 C 6.640625 -38.640625 7.710938 -39.613281 8.953125 -40.34375 C 10.191406 -41.082031 11.617188 -41.453125 13.234375 -41.453125 C 14.984375 -41.453125 16.660156 -40.9375 18.265625 -39.90625 C 19.878906 -38.882812 21.101562 -37.617188 21.9375 -36.109375 L 22.59375 -47.734375 C 22.632812 -48.660156 22.703125 -49.742188 22.796875 -50.984375 C 22.898438 -52.234375 23.109375 -53.414062 23.421875 -54.53125 C 23.742188 -55.65625 24.242188 -56.609375 24.921875 -57.390625 C 25.609375 -58.171875 26.609375 -58.5625 27.921875 -58.5625 C 29.335938 -58.5625 30.4375 -58.21875 31.21875 -57.53125 C 32 -56.851562 32.570312 -55.988281 32.9375 -54.9375 C 33.300781 -53.882812 33.519531 -52.75 33.59375 -51.53125 C 33.664062 -50.320312 33.703125 -49.179688 33.703125 -48.109375 Z M 21.78125 -15.640625 C 21.78125 -16.765625 21.753906 -17.863281 21.703125 -18.9375 C 21.660156 -20.007812 21.664062 -21.101562 21.71875 -22.21875 C 21.425781 -22.851562 21.082031 -23.546875 20.6875 -24.296875 C 20.300781 -25.054688 19.828125 -25.765625 19.265625 -26.421875 C 18.703125 -27.085938 18.078125 -27.640625 17.390625 -28.078125 C 16.710938 -28.515625 15.984375 -28.734375 15.203125 -28.734375 C 14.328125 -28.734375 13.617188 -28.460938 13.078125 -27.921875 C 12.546875 -27.390625 12.15625 -26.742188 11.90625 -25.984375 C 11.664062 -25.234375 11.507812 -24.414062 11.4375 -23.53125 C 11.363281 -22.65625 11.328125 -21.90625 11.328125 -21.28125 C 11.328125 -20.6875 11.375 -19.816406 11.46875 -18.671875 C 11.570312 -17.523438 11.753906 -16.367188 12.015625 -15.203125 C 12.285156 -14.035156 12.664062 -13.007812 13.15625 -12.125 C 13.644531 -11.25 14.300781 -10.8125 15.125 -10.8125 C 15.757812 -10.8125 16.394531 -10.945312 17.03125 -11.21875 C 17.664062 -11.488281 18.265625 -11.828125 18.828125 -12.234375 C 19.390625 -12.648438 19.925781 -13.113281 20.4375 -13.625 C 20.945312 -14.144531 21.394531 -14.625 21.78125 -15.0625 Z M 21.78125 -15.640625 "/></g></g></g><g fill="#ffffff" fill-opacity="1"><g transform="translate(154.399047, 79.742834)"><g><path d="M 32.828125 -13.015625 C 32.828125 -11.359375 32.300781 -9.738281 31.25 -8.15625 C 30.207031 -6.570312 28.890625 -5.15625 27.296875 -3.90625 C 25.710938 -2.664062 24.019531 -1.664062 22.21875 -0.90625 C 20.414062 -0.15625 18.757812 0.21875 17.25 0.21875 C 14.664062 0.21875 12.363281 -0.425781 10.34375 -1.71875 C 8.320312 -3.007812 6.628906 -4.65625 5.265625 -6.65625 C 3.898438 -8.65625 2.863281 -10.859375 2.15625 -13.265625 C 1.445312 -15.679688 1.09375 -18.035156 1.09375 -20.328125 C 1.09375 -22.765625 1.429688 -25.367188 2.109375 -28.140625 C 2.796875 -30.921875 3.832031 -33.476562 5.21875 -35.8125 C 6.613281 -38.15625 8.367188 -40.109375 10.484375 -41.671875 C 12.609375 -43.234375 15.132812 -44.015625 18.0625 -44.015625 C 19.71875 -44.015625 21.300781 -43.734375 22.8125 -43.171875 C 24.320312 -42.609375 25.632812 -41.8125 26.75 -40.78125 C 27.875 -39.757812 28.773438 -38.539062 29.453125 -37.125 C 30.140625 -35.71875 30.484375 -34.140625 30.484375 -32.390625 C 30.484375 -30.097656 29.992188 -27.953125 29.015625 -25.953125 C 28.046875 -23.953125 26.753906 -22.21875 25.140625 -20.75 C 23.535156 -19.289062 21.6875 -18.109375 19.59375 -17.203125 C 17.5 -16.304688 15.351562 -15.8125 13.15625 -15.71875 C 13.351562 -14.300781 13.925781 -13.273438 14.875 -12.640625 C 15.820312 -12.015625 16.957031 -11.703125 18.28125 -11.703125 C 19.25 -11.703125 20.195312 -11.941406 21.125 -12.421875 C 22.050781 -12.910156 22.953125 -13.457031 23.828125 -14.0625 C 24.703125 -14.675781 25.566406 -15.226562 26.421875 -15.71875 C 27.273438 -16.207031 28.140625 -16.453125 29.015625 -16.453125 C 29.992188 -16.453125 30.875 -16.132812 31.65625 -15.5 C 32.4375 -14.863281 32.828125 -14.035156 32.828125 -13.015625 Z M 20.984375 -30.921875 C 20.984375 -31.554688 20.8125 -32.210938 20.46875 -32.890625 C 20.125 -33.578125 19.585938 -33.921875 18.859375 -33.921875 C 17.785156 -33.921875 16.882812 -33.640625 16.15625 -33.078125 C 15.425781 -32.515625 14.816406 -31.804688 14.328125 -30.953125 C 13.835938 -30.109375 13.457031 -29.195312 13.1875 -28.21875 C 12.925781 -27.238281 12.769531 -26.335938 12.71875 -25.515625 C 13.40625 -25.660156 14.222656 -25.851562 15.171875 -26.09375 C 16.117188 -26.34375 17.019531 -26.671875 17.875 -27.078125 C 18.726562 -27.492188 19.457031 -28.019531 20.0625 -28.65625 C 20.675781 -29.289062 20.984375 -30.046875 20.984375 -30.921875 Z M 20.984375 -30.921875 "/></g></g></g><g fill="#ffffff" fill-opacity="1"><g transform="translate(187.950602, 79.742834)"><g><path d="M 35.3125 -24.921875 C 35.3125 -22.441406 35.273438 -19.957031 35.203125 -17.46875 C 35.128906 -14.988281 34.992188 -12.503906 34.796875 -10.015625 C 34.648438 -7.867188 34.453125 -5.578125 34.203125 -3.140625 C 33.960938 -0.703125 33.570312 1.71875 33.03125 4.125 C 32.5 6.539062 31.796875 8.859375 30.921875 11.078125 C 30.046875 13.296875 28.890625 15.253906 27.453125 16.953125 C 26.015625 18.660156 24.269531 20.023438 22.21875 21.046875 C 20.175781 22.078125 17.738281 22.59375 14.90625 22.59375 C 13.59375 22.59375 12.117188 22.382812 10.484375 21.96875 C 8.859375 21.550781 7.328125 20.953125 5.890625 20.171875 C 4.453125 19.390625 3.234375 18.425781 2.234375 17.28125 C 1.234375 16.144531 0.734375 14.820312 0.734375 13.3125 C 0.734375 12.1875 1.132812 11.144531 1.9375 10.1875 C 2.738281 9.238281 3.773438 8.765625 5.046875 8.765625 C 5.828125 8.765625 6.566406 8.898438 7.265625 9.171875 C 7.972656 9.441406 8.679688 9.742188 9.390625 10.078125 C 10.097656 10.421875 10.78125 10.726562 11.4375 11 C 12.09375 11.269531 12.765625 11.40625 13.453125 11.40625 C 15.253906 11.40625 16.765625 10.953125 17.984375 10.046875 C 19.203125 9.148438 20.175781 8.003906 20.90625 6.609375 C 21.632812 5.222656 22.179688 3.710938 22.546875 2.078125 C 22.910156 0.453125 23.171875 -1.09375 23.328125 -2.5625 C 22.347656 -1.4375 21.210938 -0.664062 19.921875 -0.25 C 18.628906 0.15625 17.273438 0.359375 15.859375 0.359375 C 13.273438 0.359375 11.082031 -0.0859375 9.28125 -0.984375 C 7.476562 -1.890625 6.015625 -3.132812 4.890625 -4.71875 C 3.773438 -6.300781 2.945312 -8.140625 2.40625 -10.234375 C 1.875 -12.328125 1.609375 -14.59375 1.609375 -17.03125 C 1.609375 -18.539062 1.765625 -20.242188 2.078125 -22.140625 C 2.398438 -24.046875 2.875 -25.972656 3.5 -27.921875 C 4.132812 -29.867188 4.925781 -31.769531 5.875 -33.625 C 6.832031 -35.476562 7.941406 -37.109375 9.203125 -38.515625 C 10.472656 -39.929688 11.898438 -41.078125 13.484375 -41.953125 C 15.066406 -42.835938 16.8125 -43.28125 18.71875 -43.28125 C 20.570312 -43.28125 22.21875 -42.742188 23.65625 -41.671875 C 25.09375 -40.597656 25.929688 -39.085938 26.171875 -37.140625 C 26.703125 -38.160156 27.40625 -39.171875 28.28125 -40.171875 C 29.164062 -41.171875 30.242188 -41.671875 31.515625 -41.671875 C 32.191406 -41.671875 32.757812 -41.328125 33.21875 -40.640625 C 33.6875 -39.960938 34.050781 -39.070312 34.3125 -37.96875 C 34.582031 -36.875 34.789062 -35.679688 34.9375 -34.390625 C 35.082031 -33.097656 35.179688 -31.832031 35.234375 -30.59375 C 35.285156 -29.351562 35.3125 -28.21875 35.3125 -27.1875 C 35.3125 -26.164062 35.3125 -25.410156 35.3125 -24.921875 Z M 24.203125 -20.171875 C 24.203125 -20.910156 24.09375 -21.863281 23.875 -23.03125 C 23.65625 -24.195312 23.335938 -25.316406 22.921875 -26.390625 C 22.503906 -27.460938 21.976562 -28.390625 21.34375 -29.171875 C 20.707031 -29.953125 19.953125 -30.34375 19.078125 -30.34375 C 17.960938 -30.34375 16.976562 -29.953125 16.125 -29.171875 C 15.269531 -28.390625 14.546875 -27.445312 13.953125 -26.34375 C 13.367188 -25.25 12.921875 -24.082031 12.609375 -22.84375 C 12.296875 -21.601562 12.140625 -20.546875 12.140625 -19.671875 C 12.140625 -19.035156 12.1875 -18.179688 12.28125 -17.109375 C 12.375 -16.035156 12.578125 -14.984375 12.890625 -13.953125 C 13.210938 -12.929688 13.640625 -12.054688 14.171875 -11.328125 C 14.710938 -10.597656 15.421875 -10.234375 16.296875 -10.234375 C 17.617188 -10.234375 18.765625 -10.550781 19.734375 -11.1875 C 20.710938 -11.820312 21.53125 -12.625 22.1875 -13.59375 C 22.84375 -14.570312 23.34375 -15.644531 23.6875 -16.8125 C 24.03125 -17.976562 24.203125 -19.097656 24.203125 -20.171875 Z M 24.203125 -20.171875 "/></g></g></g><g fill="#ffffff" fill-opacity="1"><g transform="translate(226.253467, 79.742834)"><g><path d="M 32.828125 -13.015625 C 32.828125 -11.359375 32.300781 -9.738281 31.25 -8.15625 C 30.207031 -6.570312 28.890625 -5.15625 27.296875 -3.90625 C 25.710938 -2.664062 24.019531 -1.664062 22.21875 -0.90625 C 20.414062 -0.15625 18.757812 0.21875 17.25 0.21875 C 14.664062 0.21875 12.363281 -0.425781 10.34375 -1.71875 C 8.320312 -3.007812 6.628906 -4.65625 5.265625 -6.65625 C 3.898438 -8.65625 2.863281 -10.859375 2.15625 -13.265625 C 1.445312 -15.679688 1.09375 -18.035156 1.09375 -20.328125 C 1.09375 -22.765625 1.429688 -25.367188 2.109375 -28.140625 C 2.796875 -30.921875 3.832031 -33.476562 5.21875 -35.8125 C 6.613281 -38.15625 8.367188 -40.109375 10.484375 -41.671875 C 12.609375 -43.234375 15.132812 -44.015625 18.0625 -44.015625 C 19.71875 -44.015625 21.300781 -43.734375 22.8125 -43.171875 C 24.320312 -42.609375 25.632812 -41.8125 26.75 -40.78125 C 27.875 -39.757812 28.773438 -38.539062 29.453125 -37.125 C 30.140625 -35.71875 30.484375 -34.140625 30.484375 -32.390625 C 30.484375 -30.097656 29.992188 -27.953125 29.015625 -25.953125 C 28.046875 -23.953125 26.753906 -22.21875 25.140625 -20.75 C 23.535156 -19.289062 21.6875 -18.109375 19.59375 -17.203125 C 17.5 -16.304688 15.351562 -15.8125 13.15625 -15.71875 C 13.351562 -14.300781 13.925781 -13.273438 14.875 -12.640625 C 15.820312 -12.015625 16.957031 -11.703125 18.28125 -11.703125 C 19.25 -11.703125 20.195312 -11.941406 21.125 -12.421875 C 22.050781 -12.910156 22.953125 -13.457031 23.828125 -14.0625 C 24.703125 -14.675781 25.566406 -15.226562 26.421875 -15.71875 C 27.273438 -16.207031 28.140625 -16.453125 29.015625 -16.453125 C 29.992188 -16.453125 30.875 -16.132812 31.65625 -15.5 C 32.4375 -14.863281 32.828125 -14.035156 32.828125 -13.015625 Z M 20.984375 -30.921875 C 20.984375 -31.554688 20.8125 -32.210938 20.46875 -32.890625 C 20.125 -33.578125 19.585938 -33.921875 18.859375 -33.921875 C 17.785156 -33.921875 16.882812 -33.640625 16.15625 -33.078125 C 15.425781 -32.515625 14.816406 -31.804688 14.328125 -30.953125 C 13.835938 -30.109375 13.457031 -29.195312 13.1875 -28.21875 C 12.925781 -27.238281 12.769531 -26.335938 12.71875 -25.515625 C 13.40625 -25.660156 14.222656 -25.851562 15.171875 -26.09375 C 16.117188 -26.34375 17.019531 -26.671875 17.875 -27.078125 C 18.726562 -27.492188 19.457031 -28.019531 20.0625 -28.65625 C 20.675781 -29.289062 20.984375 -30.046875 20.984375 -30.921875 Z M 20.984375 -30.921875 "/></g></g></g><g fill="#ffffff" fill-opacity="1"><g transform="translate(259.805022, 79.742834)"><g><path d="M 22.953125 2.046875 C 22.128906 2.046875 21.472656 1.664062 20.984375 0.90625 C 20.492188 0.15625 20.125 -0.703125 19.875 -1.671875 C 19.632812 -2.648438 19.476562 -3.640625 19.40625 -4.640625 C 19.332031 -5.640625 19.296875 -6.40625 19.296875 -6.9375 C 19.296875 -8.40625 19.378906 -9.867188 19.546875 -11.328125 C 19.722656 -12.796875 19.921875 -14.257812 20.140625 -15.71875 C 20.359375 -17.175781 20.550781 -18.632812 20.71875 -20.09375 C 20.894531 -21.5625 20.984375 -23.023438 20.984375 -24.484375 C 20.984375 -25.078125 20.957031 -25.710938 20.90625 -26.390625 C 20.851562 -27.078125 20.742188 -27.722656 20.578125 -28.328125 C 20.410156 -28.929688 20.128906 -29.425781 19.734375 -29.8125 C 19.347656 -30.207031 18.835938 -30.40625 18.203125 -30.40625 C 17.765625 -30.40625 17.273438 -30.050781 16.734375 -29.34375 C 16.203125 -28.644531 15.703125 -27.84375 15.234375 -26.9375 C 14.773438 -26.039062 14.382812 -25.140625 14.0625 -24.234375 C 13.75 -23.328125 13.59375 -22.65625 13.59375 -22.21875 C 13.59375 -21.144531 13.601562 -20.0625 13.625 -18.96875 C 13.65625 -17.875 13.671875 -16.765625 13.671875 -15.640625 L 13.671875 -11.40625 C 13.617188 -10.53125 13.546875 -9.628906 13.453125 -8.703125 C 13.359375 -7.773438 13.210938 -6.875 13.015625 -6 C 12.867188 -5.113281 12.648438 -4.269531 12.359375 -3.46875 C 12.066406 -2.664062 11.6875 -1.957031 11.21875 -1.34375 C 10.757812 -0.738281 10.210938 -0.242188 9.578125 0.140625 C 8.941406 0.535156 8.1875 0.734375 7.3125 0.734375 C 6.332031 0.734375 5.523438 0.414062 4.890625 -0.21875 C 4.265625 -0.851562 3.753906 -1.671875 3.359375 -2.671875 C 2.972656 -3.671875 2.691406 -4.789062 2.515625 -6.03125 C 2.347656 -7.269531 2.226562 -8.488281 2.15625 -9.6875 C 2.082031 -10.882812 2.054688 -11.976562 2.078125 -12.96875 C 2.109375 -13.96875 2.125 -14.765625 2.125 -15.359375 L 2.125 -18.78125 C 2.125 -20.632812 2.085938 -22.460938 2.015625 -24.265625 C 1.941406 -26.066406 1.90625 -27.875 1.90625 -29.6875 C 1.90625 -30.65625 1.914062 -31.894531 1.9375 -33.40625 C 1.957031 -34.914062 2.140625 -36.390625 2.484375 -37.828125 C 2.828125 -39.265625 3.390625 -40.492188 4.171875 -41.515625 C 4.953125 -42.546875 6.097656 -43.0625 7.609375 -43.0625 C 8.285156 -43.0625 8.890625 -42.84375 9.421875 -42.40625 C 9.960938 -41.96875 10.441406 -41.429688 10.859375 -40.796875 C 11.273438 -40.160156 11.613281 -39.476562 11.875 -38.75 C 12.144531 -38.019531 12.351562 -37.382812 12.5 -36.84375 C 12.988281 -37.53125 13.5625 -38.1875 14.21875 -38.8125 C 14.875 -39.445312 15.613281 -40.007812 16.4375 -40.5 C 17.269531 -40.988281 18.195312 -41.378906 19.21875 -41.671875 C 20.25 -41.960938 21.421875 -42.109375 22.734375 -42.109375 C 25.222656 -42.109375 27.160156 -41.507812 28.546875 -40.3125 C 29.929688 -39.125 30.953125 -37.640625 31.609375 -35.859375 C 32.273438 -34.078125 32.679688 -32.160156 32.828125 -30.109375 C 32.972656 -28.066406 33.046875 -26.21875 33.046875 -24.5625 C 33.046875 -23.738281 32.972656 -22.507812 32.828125 -20.875 C 32.679688 -19.238281 32.445312 -17.429688 32.125 -15.453125 C 31.8125 -13.484375 31.382812 -11.460938 30.84375 -9.390625 C 30.3125 -7.316406 29.679688 -5.425781 28.953125 -3.71875 C 28.222656 -2.019531 27.359375 -0.632812 26.359375 0.4375 C 25.359375 1.507812 24.222656 2.046875 22.953125 2.046875 Z M 22.953125 2.046875 "/></g></g></g></svg>